<svg width="0" height="0" class="hidden">
    <symbol fill="none" xmlns="http://www.w3.org/2000/svg" viewBox="0 0 26 26" id="+">
        <path d="M26 12.35H0V13.65H26V12.35Z" fill="white"></path>
        <path d="M13.65 26L13.65 0L12.35 0L12.35 26H13.65Z" fill="white"></path>
    </symbol>
    <symbol fill="none" xmlns="http://www.w3.org/2000/svg" viewBox="0 0 82 82" id="arrow-down-left">
        <path
            d="M63.8877 81.0465L80.3391 64.5951H28.5882L80.4921 12.6913L68.8552 1.05444L16.9604 52.9583V1.20743L0.5 17.6668V81.0465H63.8877Z"
            stroke="#707070" stroke-width="0.999901"></path>
    </symbol>
    <symbol fill="none" xmlns="http://www.w3.org/2000/svg" viewBox="0 0 32 32" id="arrow-uo-right">
        <path d="M6.49403 25.0542L25.0542 6.49403" stroke="white" stroke-width="0.999746"></path>
        <path d="M11.8645 6.69569L24.9871 6.69422L24.9856 19.8168" stroke="white" stroke-width="0.999746"></path>
    </symbol>
    <symbol fill="none" xmlns="http://www.w3.org/2000/svg" viewBox="0 0 80 80" id="bold-arrow-down-right">
        <path
            d="M79.9921 16.6044L63.5407 0.152994L63.5407 51.9039L11.6368 9.53674e-06L0 11.6369L51.9038 63.5317H0.152985L16.6124 79.9921H79.9921V16.6044Z"
            fill="white"></path>
    </symbol>
    <symbol fill="none" xmlns="http://www.w3.org/2000/svg" viewBox="0 0 22 11" id="burger-icons">
        <path d="M0 0.5H22" stroke="white" stroke-dasharray="22 22"></path>
        <path d="M0 0.5H22" stroke="white" stroke-dasharray="22 22"></path>
        <path d="M0 5.5H22" stroke="white" stroke-dasharray="22 22"></path>
        <path d="M0 5.5H22" stroke="white" stroke-dasharray="22 22"></path>
        <path d="M0 10.5H22" stroke="white" stroke-dasharray="22 22"></path>
        <path d="M0 10.5H22" stroke="white" stroke-dasharray="22 22"></path>
    </symbol>
    <symbol fill="white" xmlns="http://www.w3.org/2000/svg" viewBox="0 0 32 32" id="facebook">
        <path
            d="M21.95 5.005l-3.306-.004c-3.206 0-5.277 2.124-5.277 5.415v2.495H10.05v4.515h3.317l-.004 9.575h4.641l.004-9.575h3.806l-.003-4.514h-3.803v-2.117c0-1.018.241-1.533 1.566-1.533l2.366-.001.01-4.256z">
        </path>
    </symbol>
    <symbol fill="none" xmlns="http://www.w3.org/2000/svg" viewBox="0 0 24 24" id="instagram">
        <path fill-rule="evenodd" clip-rule="evenodd"
            d="M12 18C15.3137 18 18 15.3137 18 12C18 8.68629 15.3137 6 12 6C8.68629 6 6 8.68629 6 12C6 15.3137 8.68629 18 12 18ZM12 16C14.2091 16 16 14.2091 16 12C16 9.79086 14.2091 8 12 8C9.79086 8 8 9.79086 8 12C8 14.2091 9.79086 16 12 16Z"
            fill="#ffffff"></path>
        <path
            d="M18 5C17.4477 5 17 5.44772 17 6C17 6.55228 17.4477 7 18 7C18.5523 7 19 6.55228 19 6C19 5.44772 18.5523 5 18 5Z"
            fill="#ffffff"></path>
        <path fill-rule="evenodd" clip-rule="evenodd"
            d="M1.65396 4.27606C1 5.55953 1 7.23969 1 10.6V13.4C1 16.7603 1 18.4405 1.65396 19.7239C2.2292 20.8529 3.14708 21.7708 4.27606 22.346C5.55953 23 7.23969 23 10.6 23H13.4C16.7603 23 18.4405 23 19.7239 22.346C20.8529 21.7708 21.7708 20.8529 22.346 19.7239C23 18.4405 23 16.7603 23 13.4V10.6C23 7.23969 23 5.55953 22.346 4.27606C21.7708 3.14708 20.8529 2.2292 19.7239 1.65396C18.4405 1 16.7603 1 13.4 1H10.6C7.23969 1 5.55953 1 4.27606 1.65396C3.14708 2.2292 2.2292 3.14708 1.65396 4.27606ZM13.4 3H10.6C8.88684 3 7.72225 3.00156 6.82208 3.0751C5.94524 3.14674 5.49684 3.27659 5.18404 3.43597C4.43139 3.81947 3.81947 4.43139 3.43597 5.18404C3.27659 5.49684 3.14674 5.94524 3.0751 6.82208C3.00156 7.72225 3 8.88684 3 10.6V13.4C3 15.1132 3.00156 16.2777 3.0751 17.1779C3.14674 18.0548 3.27659 18.5032 3.43597 18.816C3.81947 19.5686 4.43139 20.1805 5.18404 20.564C5.49684 20.7234 5.94524 20.8533 6.82208 20.9249C7.72225 20.9984 8.88684 21 10.6 21H13.4C15.1132 21 16.2777 20.9984 17.1779 20.9249C18.0548 20.8533 18.5032 20.7234 18.816 20.564C19.5686 20.1805 20.1805 19.5686 20.564 18.816C20.7234 18.5032 20.8533 18.0548 20.9249 17.1779C20.9984 16.2777 21 15.1132 21 13.4V10.6C21 8.88684 20.9984 7.72225 20.9249 6.82208C20.8533 5.94524 20.7234 5.49684 20.564 5.18404C20.1805 4.43139 19.5686 3.81947 18.816 3.43597C18.5032 3.27659 18.0548 3.14674 17.1779 3.0751C16.2777 3.00156 15.1132 3 13.4 3Z"
            fill="#fffffF"></path>
    </symbol>
    <symbol fill="white" version="1.1" xmlns="http://www.w3.org/2000/svg" viewBox="0 0 32 32" id="tiktok">
        <path
            d="M16.656 1.029c1.637-0.025 3.262-0.012 4.886-0.025 0.054 2.031 0.878 3.859 2.189 5.213l-0.002-0.002c1.411 1.271 3.247 2.095 5.271 2.235l0.028 0.002v5.036c-1.912-0.048-3.71-0.489-5.331-1.247l0.082 0.034c-0.784-0.377-1.447-0.764-2.077-1.196l0.052 0.034c-0.012 3.649 0.012 7.298-0.025 10.934-0.103 1.853-0.719 3.543-1.707 4.954l0.020-0.031c-1.652 2.366-4.328 3.919-7.371 4.011l-0.014 0c-0.123 0.006-0.268 0.009-0.414 0.009-1.73 0-3.347-0.482-4.725-1.319l0.040 0.023c-2.508-1.509-4.238-4.091-4.558-7.094l-0.004-0.041c-0.025-0.625-0.037-1.25-0.012-1.862 0.49-4.779 4.494-8.476 9.361-8.476 0.547 0 1.083 0.047 1.604 0.136l-0.056-0.008c0.025 1.849-0.050 3.699-0.050 5.548-0.423-0.153-0.911-0.242-1.42-0.242-1.868 0-3.457 1.194-4.045 2.861l-0.009 0.030c-0.133 0.427-0.21 0.918-0.21 1.426 0 0.206 0.013 0.41 0.037 0.61l-0.002-0.024c0.332 2.046 2.086 3.59 4.201 3.59 0.061 0 0.121-0.001 0.181-0.004l-0.009 0c1.463-0.044 2.733-0.831 3.451-1.994l0.010-0.018c0.267-0.372 0.45-0.822 0.511-1.311l0.001-0.014c0.125-2.237 0.075-4.461 0.087-6.698 0.012-5.036-0.012-10.060 0.025-15.083z">
        </path>
    </symbol>
    <symbol fill="none" xmlns="http://www.w3.org/2000/svg" viewBox="0 0 24 24" id="twitter">
        <path
            d="M19.83 8.00001C19.83 8.17001 19.83 8.35001 19.83 8.52001C19.8393 10.0302 19.5487 11.5272 18.9751 12.9242C18.4014 14.3212 17.5562 15.5904 16.4883 16.6583C15.4204 17.7262 14.1512 18.5714 12.7542 19.1451C11.3572 19.7187 9.86017 20.0093 8.34999 20C6.15213 20.0064 3.9992 19.3779 2.14999 18.19C2.47999 18.19 2.78999 18.19 3.14999 18.19C4.96345 18.19 6.72433 17.5808 8.14999 16.46C7.30493 16.4524 6.48397 16.1774 5.80489 15.6744C5.12581 15.1714 4.62349 14.4662 4.36999 13.66C4.62464 13.7006 4.88213 13.7207 5.13999 13.72C5.49714 13.7174 5.85281 13.6738 6.19999 13.59C5.2965 13.4056 4.48448 12.9147 3.90135 12.2003C3.31822 11.486 2.99981 10.5921 2.99999 9.67001C3.55908 9.97841 4.18206 10.153 4.81999 10.18C4.25711 9.80767 3.79593 9.30089 3.47815 8.7055C3.16038 8.11011 2.99604 7.44489 2.99999 6.77001C3.00124 6.06749 3.18749 5.37769 3.53999 4.77001C4.55172 6.01766 5.81423 7.03889 7.24575 7.76757C8.67727 8.49625 10.2459 8.91613 11.85 9.00001C11.7865 8.69737 11.753 8.38922 11.75 8.08001C11.7239 7.25689 11.9526 6.44578 12.4047 5.75746C12.8569 5.06913 13.5104 4.53714 14.2762 4.23411C15.0419 3.93109 15.8826 3.87181 16.6833 4.06437C17.484 4.25693 18.2057 4.69195 18.75 5.31001C19.655 5.12822 20.5214 4.78981 21.31 4.31001C21.0088 5.24317 20.3754 6.0332 19.53 6.53001C20.3337 6.44316 21.1194 6.23408 21.86 5.91001C21.3116 6.71097 20.6361 7.41694 19.86 8.00001H19.83Z"
            fill="#ffffff"></path>
    </symbol>
    <symbol fill="white" xmlns="http://www.w3.org/2000/svg" viewBox="0 0 32 32" id="youtube">
        <path
            d="M24.325 8.309s-2.655-.334-8.357-.334c-5.517 0-8.294.334-8.294.334A2.675 2.675 0 0 0 5 10.984v10.034a2.675 2.675 0 0 0 2.674 2.676s2.582.332 8.294.332c5.709 0 8.357-.332 8.357-.332A2.673 2.673 0 0 0 27 21.018V10.982a2.673 2.673 0 0 0-2.675-2.673zM13.061 19.975V12.03L20.195 16l-7.134 3.975z">
        </path>
    </symbol>
</svg>